<svg width="56" height="56" viewBox="0 0 56 56" fill="none" xmlns="http://www.w3.org/2000/svg">
<path fill-rule="evenodd" clip-rule="evenodd" d="M49.7778 0H6.22222V3.11111C6.01907 5.27536 5.39118 6.00651 3.11111 6.22222H0V49.7778H3.11111C5.27536 49.9809 6.00651 50.6088 6.22222 52.8889V56H49.7778V52.8889C49.9809 50.7246 50.6088 49.9935 52.8889 49.7778H56V6.22222H52.8889C50.7246 6.01907 49.9935 5.39118 49.7778 3.11111V0ZM6.22222 9.33333V46.6667C6.43793 48.9467 7.16908 49.5746 9.33333 49.7778H46.6667C48.9467 49.5621 49.5746 48.8309 49.7778 46.6667V9.33333C49.5621 7.05326 48.8309 6.42538 46.6667 6.22222H9.33333C7.05326 6.43793 6.42538 7.16908 6.22222 9.33333ZM37.3333 12.4444H31.1111V18.6667H34.2222C36.3865 18.8698 37.1176 19.4977 37.3333 21.7778V24.8889H43.5556V18.6667H40.4444C38.2802 18.4635 37.549 17.8356 37.3333 15.5556V12.4444ZM21.7778 37.3333H24.8889V43.5556H18.6667V40.4444C18.451 38.1644 17.7198 37.5365 15.5556 37.3333H12.4444V31.1111H18.6667V34.2222C18.8824 36.5023 19.6135 37.1302 21.7778 37.3333ZM43.5556 37.3333H40.4444C38.1644 37.549 37.5365 38.2802 37.3333 40.4444V43.5556H31.1111V37.3333H34.2222C36.5023 37.1176 37.1302 36.3865 37.3333 34.2222V31.1111H43.5556V37.3333ZM12.4444 24.8889L12.4444 18.6667H15.5556C17.8356 18.451 18.4635 17.7198 18.6667 15.5556V12.4444L24.8889 12.4444V18.6667H21.7778C19.4977 18.8824 18.8698 19.6135 18.6667 21.7778V24.8889H12.4444Z" fill="#9FA493"/>
</svg>
