<svg width="15" height="17" viewBox="0 0 15 17" fill="none" xmlns="http://www.w3.org/2000/svg">
<path fill-rule="evenodd" clip-rule="evenodd" d="M8.91429 0.844238H1.48571V1.53193C1.43721 2.01032 1.28728 2.17194 0.742857 2.21962H0V11.8473H0.742857C1.25963 11.8922 1.43421 12.031 1.48571 12.535V13.2227H8.91429V12.535C8.96279 12.0566 9.11272 11.895 9.65714 11.8473H10.4V2.21962H9.65714C9.14037 2.17471 8.96579 2.03593 8.91429 1.53193V0.844238ZM1.48571 2.90731V11.1596C1.53722 11.6636 1.7118 11.8024 2.22857 11.8473H8.17143C8.71585 11.7996 8.86578 11.638 8.91429 11.1596V2.90731C8.86278 2.40332 8.6882 2.26453 8.17143 2.21962H2.22857C1.68415 2.2673 1.53422 2.42892 1.48571 2.90731Z" fill="#9FA493"/>
<rect x="5" y="5" width="8.4" height="11" rx="2" fill="#F2F0EF"/>
<path fill-rule="evenodd" clip-rule="evenodd" d="M12.9143 3.93896H5.48571V4.62666C5.43721 5.10505 5.28728 5.26667 4.74286 5.31435H4V14.942H4.74286C5.25963 14.9869 5.43421 15.1257 5.48571 15.6297V16.3174H12.9143V15.6297C12.9628 15.1513 13.1127 14.9897 13.6571 14.942H14.4V5.31435H13.6571C13.1404 5.26944 12.9658 5.13065 12.9143 4.62666V3.93896ZM5.48571 6.00204V14.2543C5.53722 14.7583 5.7118 14.8971 6.22857 14.942H12.1714C12.7159 14.8943 12.8658 14.7327 12.9143 14.2543V6.00204C12.8628 5.49804 12.6882 5.35925 12.1714 5.31435H6.22857C5.68415 5.36203 5.53422 5.52365 5.48571 6.00204Z" fill="#9FA493"/>
</svg>
