<svg width="16" height="16" viewBox="0 0 16 16" fill="none" xmlns="http://www.w3.org/2000/svg">
<path fill-rule="evenodd" clip-rule="evenodd" d="M4.26667 0H11.7333V1.06667C11.8073 1.84841 12.058 2.06368 12.8 2.13333H13.8667V3.2C13.9406 3.98174 14.1913 4.19701 14.9333 4.26667H16V11.7333H14.9333C14.1516 11.8073 13.9363 12.058 13.8667 12.8V13.8667H12.8C12.0183 13.9406 11.803 14.1913 11.7333 14.9333V16H4.26667V14.9333C4.19271 14.1516 3.94203 13.9363 3.2 13.8667H2.13333V12.8C2.05938 12.0183 1.8087 11.803 1.06667 11.7333H0V4.26667H1.06667C1.84841 4.19271 2.06368 3.94203 2.13333 3.2V2.13333H3.2C3.98174 2.05938 4.19701 1.8087 4.26667 1.06667V0ZM5.33333 13.8667C4.59131 13.797 4.34062 13.5817 4.26667 12.8V11.7333H3.2C2.45797 11.6637 2.20729 11.4484 2.13333 10.6667L2.13333 5.33333C2.20299 4.59131 2.41826 4.34062 3.2 4.26667H4.26667V3.2C4.33632 2.45797 4.55159 2.20729 5.33333 2.13333L10.6667 2.13333C11.4087 2.20299 11.6594 2.41826 11.7333 3.2V4.26667H12.8C13.542 4.33632 13.7927 4.55159 13.8667 5.33333V10.6667C13.797 11.4087 13.5817 11.6594 12.8 11.7333H11.7333V12.8C11.6637 13.542 11.4484 13.7927 10.6667 13.8667H5.33333Z" fill="#9FA493"/>
<path d="M8.06556 5.48465C7.7669 5.48465 7.55712 5.42412 7.43623 5.30307C7.32245 5.18202 7.26556 5.03249 7.26556 4.85447V4.63017C7.26556 4.45216 7.32245 4.30263 7.43623 4.18158C7.55712 4.06053 7.76334 4 8.0549 4C8.35356 4 8.55978 4.06053 8.67356 4.18158C8.79445 4.30263 8.8549 4.45216 8.8549 4.63017V4.85447C8.8549 5.03249 8.79445 5.18202 8.67356 5.30307C8.55978 5.42412 8.35712 5.48465 8.06556 5.48465ZM5.60156 11.0601H7.4789V7.42857H5.60156V6.48865H8.64156V11.0601H10.4016V12H5.60156V11.0601Z" fill="#9FA493"/>
</svg>
