<svg width="48" height="56" viewBox="0 0 48 56" fill="none" xmlns="http://www.w3.org/2000/svg">
<path fill-rule="evenodd" clip-rule="evenodd" d="M30 0H18V3.11111C17.8041 5.27536 17.1986 6.00651 15 6.22222H12V18.6667H15C17.087 18.8698 17.792 19.4977 18 21.7778V24.8889H21V43.5556H27V24.8889H30V21.7778C30.1959 19.6135 30.8014 18.8824 33 18.6667H36V6.22222H33C30.913 6.01907 30.208 5.39118 30 3.11111V0ZM18 15.5556C18.208 17.8356 18.913 18.4635 21 18.6667H27C29.1986 18.451 29.8041 17.7198 30 15.5556V9.33333C29.792 7.05326 29.087 6.42538 27 6.22222L21 6.22222C18.8014 6.43793 18.1959 7.16908 18 9.33333V15.5556ZM39 40.4444C41.087 40.6476 41.792 41.2755 42 43.5556V46.6667C41.8041 48.8309 41.1986 49.5621 39 49.7778H9C6.91305 49.5746 6.20801 48.9467 6 46.6667V43.5556C6.1959 41.3913 6.80136 40.6602 9 40.4444H15V34.2222H6L6 37.3333C5.8041 39.4976 5.19864 40.2287 3 40.4444H0V49.7778H3C5.08695 49.9809 5.79199 50.6088 6 52.8889V56H42V52.8889C42.1959 50.7246 42.8014 49.9935 45 49.7778H48V40.4444H45C42.913 40.2413 42.208 39.6134 42 37.3333V34.2222H33V40.4444L39 40.4444Z" fill="#9FA493"/>
</svg>
