<svg width="32" height="32" viewBox="0 0 32 32" fill="none" xmlns="http://www.w3.org/2000/svg">
<rect width="32" height="32" rx="16" fill="#F5B300"/>
<path d="M10.3782 7.35665C10.9658 7.5169 11.5534 7.62374 12.141 7.78399C12.7286 7.94424 13.3162 8.05107 13.9038 8.21132C14.064 8.26474 14.1174 8.21132 14.1708 8.05107C14.3845 7.14299 14.5982 6.28832 14.8118 5.38023C14.8653 5.21998 14.9187 5.16657 15.0789 5.21998C15.6131 5.38023 16.0938 5.48707 16.628 5.5939C16.7883 5.64732 16.7883 5.70073 16.7348 5.80757C16.5212 6.66224 16.3075 7.57032 16.0938 8.42499C16.0938 8.47841 16.0938 8.53182 16.0404 8.63866C16.4678 8.74549 16.9485 8.85232 17.3758 8.95916C17.4293 8.95916 17.4827 8.85232 17.5361 8.79891C17.6963 8.10449 17.8566 7.46349 18.0703 6.76907C18.1237 6.5554 18.1771 6.34173 18.2305 6.12807C18.2305 6.02123 18.2839 5.96782 18.3908 6.02123C18.9249 6.18148 19.4591 6.28832 20.0467 6.44857C20.1001 6.44857 20.1001 6.50199 20.1535 6.50199C19.9933 7.1964 19.833 7.83741 19.6728 8.47841C19.6194 8.74549 19.5659 9.01257 19.4591 9.27966C19.4057 9.43991 19.4591 9.49333 19.6194 9.54674C20.2069 9.81383 20.7945 10.0809 21.3821 10.348C21.9163 10.6685 22.397 11.0958 22.7709 11.63C23.2517 12.4312 23.3051 13.2859 23.0914 14.1406C22.9312 14.7282 22.7175 15.2623 22.2902 15.6897C21.9697 16.0102 21.5424 16.2238 21.115 16.3841C21.0616 16.3841 21.0082 16.4375 20.9014 16.4375C21.115 16.5978 21.3287 16.7046 21.5424 16.8648C22.1834 17.3456 22.6107 17.9332 22.8244 18.681C22.9312 19.2686 22.8778 19.9096 22.7175 20.4972C22.5039 21.245 22.2368 21.886 21.756 22.4736C21.1684 23.168 20.4206 23.5419 19.5659 23.6488C18.4442 23.809 17.3758 23.7022 16.3075 23.5419C16.1473 23.4885 16.0404 23.5419 15.987 23.7022C15.7733 24.5569 15.5597 25.4649 15.346 26.3196C15.2926 26.5333 15.2926 26.5867 15.0255 26.4799C14.5448 26.373 14.0106 26.2128 13.5298 26.106C13.3696 26.0525 13.3696 25.9991 13.423 25.8923C13.6367 24.9842 13.8503 24.0761 14.1174 23.2214C14.1174 23.1146 14.1708 23.0612 14.064 23.0078C13.6367 22.9009 13.2093 22.7941 12.7286 22.6873C12.6218 23.168 12.4615 23.6488 12.3547 24.1295C12.2478 24.6103 12.0876 25.091 11.9808 25.5718C11.9273 25.6786 11.9273 25.732 11.7671 25.6786C11.2329 25.5184 10.6987 25.4115 10.1646 25.3047C10.0043 25.2513 10.0043 25.1979 10.0577 25.091C10.2714 24.1829 10.4851 23.2749 10.7522 22.4202C10.7522 22.3668 10.8056 22.3134 10.8056 22.2065C9.577 21.886 8.34841 21.5655 7.06641 21.245C7.17324 21.0314 7.22666 20.8711 7.33349 20.6574C7.54716 20.1767 7.76082 19.6959 7.92108 19.2686C7.97449 19.1083 8.02791 19.1083 8.18816 19.1083C8.56208 19.2152 8.98941 19.322 9.36333 19.3754C9.79066 19.4823 10.1112 19.2686 10.1646 18.8947C10.859 16.1704 11.5534 13.4462 12.1944 10.6685C12.3013 10.2412 12.0342 9.76041 11.5534 9.60016C11.0727 9.43991 10.5919 9.33308 10.1646 9.22624C10.0577 9.22624 10.0043 9.17283 10.0577 9.06599C10.218 8.47841 10.3782 7.83741 10.5385 7.24982C10.3248 7.41007 10.3248 7.41007 10.3782 7.35665ZM13.1025 20.5506C13.1559 20.5506 13.2093 20.604 13.2093 20.604C14.064 20.8177 14.9721 21.0848 15.8802 21.1382C16.5212 21.1916 17.1088 21.1916 17.6963 20.9779C18.7113 20.6574 19.1386 19.322 18.551 18.4673C18.2839 18.04 17.8566 17.7729 17.4293 17.5058C16.4678 16.9717 15.346 16.758 14.2777 16.5443C14.1174 16.4909 14.1174 16.5443 14.064 16.7046C13.9572 17.2388 13.7969 17.7195 13.6901 18.2537C13.4764 19.0015 13.3162 19.7494 13.1025 20.5506ZM17.5895 15.1021C17.6963 15.1021 17.9634 15.0487 18.1771 14.9953C19.192 14.7816 19.7262 13.6064 19.192 12.6983C18.9249 12.2176 18.4442 11.8971 17.9634 11.6834C17.2156 11.3629 16.4678 11.2027 15.6665 10.989C15.5063 10.9356 15.4528 10.989 15.3994 11.1492C15.1323 12.271 14.8653 13.3393 14.5448 14.4611C14.4913 14.5679 14.5448 14.6213 14.6516 14.6748C14.8653 14.7282 15.0255 14.7816 15.2392 14.835C16.0404 14.9418 16.7348 15.1021 17.5895 15.1021Z" fill="white"/>
</svg>
