<svg width="64" height="64" viewBox="0 0 64 64" fill="none" xmlns="http://www.w3.org/2000/svg">
<g clip-path="url(#clip0_92_2964)">
<path d="M32 64C49.7334 64 64 49.7334 64 32C64 14.2666 49.7334 0 32 0C14.2666 0 0 14.2666 0 32C0 49.7334 14.2666 64 32 64Z" fill="#2775CA"/>
<path d="M40.8002 37.0661C40.8002 32.3996 38.0002 30.7996 32.4002 30.133C28.4002 29.5996 27.6002 28.533 27.6002 26.6661C27.6002 24.7992 28.9336 23.5996 31.6002 23.5996C34.0002 23.5996 35.3336 24.3996 36.0002 26.3996C36.1336 26.7996 36.5336 27.0661 36.9336 27.0661H39.0667C39.6002 27.0661 40.0002 26.6661 40.0002 26.133V25.9996C39.4667 23.0661 37.0667 20.7996 34.0002 20.533V17.333C34.0002 16.7996 33.6002 16.3996 32.9336 16.2661H30.9336C30.4002 16.2661 30.0002 16.6661 29.8667 17.333V20.3996C25.8667 20.933 23.3336 23.5996 23.3336 26.933C23.3336 31.333 26.0002 33.0661 31.6002 33.733C35.3336 34.3996 36.5336 35.1996 36.5336 37.333C36.5336 39.4664 34.6667 40.933 32.1336 40.933C28.6667 40.933 27.4667 39.4661 27.0667 37.4661C26.9336 36.933 26.5336 36.6661 26.1336 36.6661H23.8667C23.3336 36.6661 22.9336 37.0661 22.9336 37.5996V37.733C23.4667 41.0661 25.6002 43.4661 30.0002 44.133V47.333C30.0002 47.8661 30.4002 48.2661 31.0667 48.3996H33.0667C33.6002 48.3996 34.0002 47.9996 34.1336 47.333V44.133C38.1336 43.4661 40.8002 40.6661 40.8002 37.0661V37.0661Z" fill="white"/>
<path d="M25.2006 51.0669C14.8006 47.3337 9.46721 35.7337 13.3341 25.4669C15.3341 19.8669 19.7341 15.6003 25.2006 13.6003C25.7341 13.3337 26.0006 12.9337 26.0006 12.2669V10.4003C26.0006 9.86686 25.7341 9.46686 25.2006 9.33374C25.0672 9.33374 24.8006 9.33374 24.6672 9.46686C12.0006 13.4669 5.06721 26.9337 9.06721 39.6003C11.4672 47.0669 17.2006 52.8003 24.6672 55.2003C25.2006 55.4669 25.7341 55.2003 25.8672 54.6669C26.0006 54.5337 26.0006 54.4003 26.0006 54.1337V52.2669C26.0006 51.8669 25.6006 51.3337 25.2006 51.0669ZM39.3341 9.46686C38.8006 9.2003 38.2672 9.46686 38.1341 10.0003C38.0006 10.1337 38.0006 10.2669 38.0006 10.5337V12.4003C38.0006 12.9337 38.4006 13.4669 38.8006 13.7337C49.2006 17.4669 54.5341 29.0669 50.6672 39.3337C48.6672 44.9337 44.2672 49.2003 38.8006 51.2003C38.2672 51.4669 38.0006 51.8669 38.0006 52.5337V54.4003C38.0006 54.9337 38.2672 55.3337 38.8006 55.4669C38.9341 55.4669 39.2006 55.4669 39.3341 55.3337C52.0006 51.3337 58.9341 37.8669 54.9341 25.2003C52.5341 17.6003 46.6672 11.8669 39.3341 9.46686V9.46686Z" fill="white"/>
</g>
<defs>
<clipPath id="clip0_92_2964">
<rect width="64" height="64" fill="white"/>
</clipPath>
</defs>
</svg>
